<svg width="175" height="175" viewBox="0 0 175 175" fill="none" xmlns="http://www.w3.org/2000/svg">
  <style>
    .loading-circle {
      stroke-dasharray: 525;
      stroke-dashoffset: 525;
      animation: loading 2s linear infinite;
      transform-origin: center;
    }
    
    @keyframes loading {
      0% {
        stroke-dashoffset: 525;
        transform: rotate(0deg);
      }
      100% {
        stroke-dashoffset: 0;
        transform: rotate(360deg);
      }
    }
  </style>
  
  <rect x="47.4199" y="50.76" width="78.49" height="75.15" rx="37.575" fill="#13A541"/>
  <rect x="70.7998" y="94.1801" width="8.35" height="8.35" fill="white"/>
  <rect x="82.4897" y="74.1399" width="8.35" height="28.39" fill="white"/>
  <rect x="94.1797" y="89.17" width="8.35" height="13.36" fill="white"/>
  <path class="loading-circle" d="M171 87.5C171 133.616 133.616 171 87.5 171C41.3842 171 4 133.616 4 87.5C4 41.3842 41.3842 4 87.5 4C133.616 4 171 41.3842 171 87.5ZM8.48991 87.5C8.48991 131.136 43.8639 166.51 87.5 166.51C131.136 166.51 166.51 131.136 166.51 87.5C166.51 43.8639 131.136 8.48991 87.5 8.48991C43.8639 8.48991 8.48991 43.8639 8.48991 87.5Z" fill="none" stroke="#13A541" stroke-width="4"/>
</svg>