<svg width="36" height="36" viewBox="0 0 36 36" fill="none" xmlns="http://www.w3.org/2000/svg">
  <rect width="36" height="36" rx="16" fill="#F5F5F5" />
  <path d="M14.5 20.5H21.5M14.5 15.5H18" stroke="#08190E" strokeWidth="1.5" strokeLinecap="round"
    strokeLinejoin="round" />
  <path
    d="M20.1706 26.8905C24.3536 26.6125 27.6856 23.2332 27.9598 18.9909C28.0134 18.1607 28.0134 17.3009 27.9598 16.4707C27.6856 12.2284 24.3536 8.84913 20.1706 8.57107C18.7435 8.47621 17.2536 8.47641 15.8294 8.57107C11.6464 8.84913 8.31441 12.2284 8.04024 16.4707C7.98659 17.3009 7.98659 18.1607 8.04024 18.9909C8.1401 20.536 8.82343 21.9666 9.62791 23.1746C10.095 24.0203 9.78674 25.0758 9.30021 25.9978C8.94941 26.6626 8.77401 26.995 8.91484 27.2351C9.05568 27.4752 9.37026 27.4829 9.99943 27.4982C11.2437 27.5285 12.0827 27.1757 12.7487 26.6846C13.1264 26.4061 13.3153 26.2668 13.4454 26.2508C13.5756 26.2348 13.8318 26.3403 14.344 26.5513C14.8044 26.7409 15.339 26.8579 15.8294 26.8905C17.2536 26.9852 18.7435 26.9854 20.1706 26.8905Z"
    stroke="#08190E" strokeWidth="1.5" strokeLinejoin="round" />
</svg>