<svg width="24" height="25" viewBox="0 0 24 25" fill="none" xmlns="http://www.w3.org/2000/svg">
  <path d="M2 6.21484L8.91302 10.1318C11.4616 11.5758 12.5384 11.5758 15.087 10.1318L22 6.21484"
    stroke="#08190E" strokeWidth="1.5" strokeLinejoin="round" />
  <path
    d="M2.01577 13.6904C2.08114 16.756 2.11383 18.2887 3.24496 19.4242C4.37608 20.5596 5.95033 20.5991 9.09883 20.6782C11.0393 20.727 12.9607 20.727 14.9012 20.6782C18.0497 20.5991 19.6239 20.5596 20.7551 19.4242C21.8862 18.2887 21.9189 16.756 21.9842 13.6904C22.0053 12.7047 22.0053 11.7249 21.9842 10.7392C21.9189 7.6737 21.8862 6.14093 20.7551 5.0055C19.6239 3.87007 18.0497 3.83053 14.9012 3.75142C12.9607 3.70266 11.0393 3.70265 9.09882 3.7514C5.95033 3.8305 4.37608 3.87005 3.24495 5.00549C2.11382 6.14092 2.08114 7.67369 2.01576 10.7392C1.99474 11.7249 1.99475 12.7047 2.01577 13.6904Z"
    stroke="#08190E" strokeWidth="1.5" strokeLinejoin="round" />
</svg>