<svg width="24" height="25" viewBox="0 0 24 25" fill="none" xmlns="http://www.w3.org/2000/svg">
  <path
    d="M21.544 11.4747C21.848 11.901 22 12.1142 22 12.4297C22 12.7452 21.848 12.9584 21.544 13.3847C20.1779 15.3003 16.6892 19.4297 12 19.4297C7.31078 19.4297 3.8221 15.3003 2.45604 13.3847C2.15201 12.9584 2 12.7452 2 12.4297C2 12.1142 2.15201 11.901 2.45604 11.4747C3.8221 9.55913 7.31078 5.42969 12 5.42969C16.6892 5.42969 20.1779 9.55913 21.544 11.4747Z"
    stroke="#08190E" strokeWidth="1.5" />
  <path
    d="M15 12.4297C15 10.7728 13.6569 9.42969 12 9.42969C10.3431 9.42969 9 10.7728 9 12.4297C9 14.0866 10.3431 15.4297 12 15.4297C13.6569 15.4297 15 14.0866 15 12.4297Z"
    stroke="#08190E" strokeWidth="1.5" />
</svg>